<?xml version="1.0" encoding="utf-8"?>
<!-- Generator: Adobe Illustrator 16.0.0, SVG Export Plug-In . SVG Version: 6.00 Build 0)  -->
<!DOCTYPE svg PUBLIC "-//W3C//DTD SVG 1.1//EN" "http://www.w3.org/Graphics/SVG/1.1/DTD/svg11.dtd">
<svg version="1.1" id="Calque_1" xmlns="http://www.w3.org/2000/svg" xmlns:xlink="http://www.w3.org/1999/xlink" x="0px" y="0px"
	 width="72px" height="53px" viewBox="0 0 72 53" enable-background="new 0 0 72 53" xml:space="preserve">
<g>
	<g>
		<path fill-rule="evenodd" clip-rule="evenodd" fill="#FFFFFF" d="M36,16c-7.2,0-13,5.8-13,13s5.8,13,13,13s13-5.8,13-13
			S43.2,16,36,16z M62,7H49l-4-7H27l-4,7H10C4.5,7,0,11.5,0,17v26c0,5.5,4.5,10,10,10h52c5.5,0,10-4.5,10-10V17C72,11.5,67.5,7,62,7
			z M36,46c-9.4,0-17-7.6-17-17s7.6-17,17-17s17,7.6,17,17S45.4,46,36,46z"/>
	</g>
</g>
</svg>
