<?xml version="1.0" encoding="utf-8"?>
<!-- Generator: Adobe Illustrator 16.0.0, SVG Export Plug-In . SVG Version: 6.00 Build 0)  -->
<!DOCTYPE svg PUBLIC "-//W3C//DTD SVG 1.1//EN" "http://www.w3.org/Graphics/SVG/1.1/DTD/svg11.dtd">
<svg version="1.1" id="Calque_1" xmlns="http://www.w3.org/2000/svg" xmlns:xlink="http://www.w3.org/1999/xlink" x="0px" y="0px"
	 width="220px" height="220px" viewBox="0 0 220 220" enable-background="new 0 0 220 220" xml:space="preserve">
<path fill="#FFFFFF" d="M110,5.8c27.8,0,54,10.8,73.7,30.5s30.5,45.8,30.5,73.7c0,27.8-10.8,54-30.5,73.7
	c-19.7,19.7-45.8,30.5-73.7,30.5c-27.8,0-54-10.8-73.7-30.5C16.7,164,5.8,137.8,5.8,110c0-27.8,10.8-54,30.5-73.7
	C56,16.7,82.2,5.8,110,5.8 M110,0C49.2,0,0,49.2,0,110s49.2,110,110,110c60.8,0,110-49.2,110-110S170.8,0,110,0L110,0z"/>
<path fill="#FFFFFF" d="M110,41.2c37.9,0,68.8,30.9,68.8,68.8s-30.8,68.8-68.8,68.8c-37.9,0-68.8-30.9-68.8-68.8S72.1,41.2,110,41.2
	 M110,39.3c-39.1,0-70.7,31.7-70.7,70.7c0,39.1,31.7,70.7,70.7,70.7c39.1,0,70.7-31.7,70.7-70.7C180.7,70.9,149.1,39.3,110,39.3
	L110,39.3z"/>
<path fill="#FFFFFF" d="M110,33.4c42.3,0,76.6,34.4,76.6,76.6s-34.4,76.6-76.6,76.6S33.4,152.3,33.4,110S67.7,33.4,110,33.4
	 M110,31.4c-43.4,0-78.6,35.2-78.6,78.6s35.2,78.6,78.6,78.6c43.4,0,78.6-35.2,78.6-78.6S153.4,31.4,110,31.4L110,31.4z"/>
</svg>
